<?xml version="1.0" encoding="UTF-8"?>
<svg width="516px" height="460px" viewBox="0 0 516 460" version="1.1" xmlns="http://www.w3.org/2000/svg" xmlns:xlink="http://www.w3.org/1999/xlink">
    <!-- Generator: Sketch 42 (36781) - http://www.bohemiancoding.com/sketch -->
    <title>Carte St-Martin</title>
    <desc>Created with Sketch.</desc>
    <defs></defs>
    <g id="About" stroke="none" stroke-width="1" fill="none" fill-rule="evenodd">
        <g id="Desktop" transform="translate(-255.000000, -616.000000)">
            <g id="Carte-St-Martin" transform="translate(257.000000, 617.000000)">
                <polygon id="Côte" stroke="#AED9DA" stroke-width="3" fill="#FBFFFF" points="201.942452 362.65252 204.168708 368.878184 214.399949 371.35176 219.362085 381.132818 231.408305 378.093001 257.557127 386.154476 259.842988 395.61367 265.284947 398.581961 273.912806 393.181816 281.128021 394.418605 286.015651 404.002968 295.376655 407.713332 305.810553 399.058795 325.676981 402.027087 330.677862 424.277353 337.145031 418.75502 334.725058 398.832299 341.961135 394.287475 343.692667 387.874058 352.567888 384.369328 385.693503 391.480115 393.218665 399.318074 388.462167 409.873986 396.973796 429.757964 389.994022 446.271321 393.892205 456.681203 404.209873 456.180527 418.586658 434.302788 430.504727 429.632795 434.40887 422.69486 439.850829 421.192833 443.445025 412.621742 452.975904 406.679199 455.449522 399.893255 451.694391 384.098129 469.251117 370.287824 474.487437 358.539827 465.54069 349.497862 472.225418 326.59791 482.575869 322.842842 494.100543 309.238172 490.056327 282.69044 497.602352 274.83162 488.300953 275.81211 481.324159 265.494614 489.117545 261.489209 505.556672 270.954363 511.988078 267.699971 508.107776 248.114015 511.737735 233.5974 507.35973 221.026864 499.733239 220.526188 491.752097 229.001913 483.970632 226.939606 477.384252 227.929036 473.879464 220.842091 448.401202 213.919057 442.005559 218.970517 434.590666 215.444926 445.08715 197.11662 450.612556 198.845143 461.529257 192.76849 468.83388 179.560188 477.712081 177.307147 475.87624 191.320106 480.331732 214.878686 489.63015 221.265281 485.001803 212.69419 481.711593 191.177056 487.532045 184.128854 498.508351 183.628178 511.845025 160.668621 489.797045 148.130868 477.485581 137.351439 468.085834 121.660621 466.542058 91.3160974 456.22141 71.4201991 462.825671 62.974277 474.389089 62.974277 480.820495 67.2121391 487.46946 63.8564199 489.943077 53.3154085 481.348001 46.1509777 478.600199 15.3057789 464.458855 2.08853665 453.050411 0.586509579 444.157308 6.78237126 427.175774 5.48895906 414.774902 7.22046249 406.024852 17.2220555 411.293956 35.9318292 402.955182 41.3736972 393.367678 31.6939671 380.850577 29.6704029 371.078297 21.8235035 359.97384 24.0914452 362.983905 41.6687382 358.146939 45.8767982 358.135018 59.2639125 341.305477 90.8005207 312.173413 92.9552143 301.182206 83.2605832 290.450281 88.8544419 291.192367 95.4973355 283.95629 97.4761965 283.95629 113.506759 270.059327 118.513516 259.5241 131.864868 244.846308 145.487419 250.750208 162.47761 256.421647 167.979082 257.658456 177.959814 241.952473 202.355833 239.949737 214.902528 228.302872 223.21434 212.778686 228.429712 208.770233 234.634514 190.170416 244.406631 166.909469 238.476008 139.094682 221.590124 132.800368 207.001984 143.982312 196.589122 139.622188 189.514098 146.143002 178.359162 137.562827 175.334247 132.773545 187.821337 120.21472 192.810213 107.950941 205.720493 94.3013395 209.511323 42.3017234 183.771228 18.6593028 191.808861 20.8855587 201.583958 6.50877347 215.564135 0.211479284 228.516138 41.7622959 248.32561 49.7225764 256.986108 49.2546753 268.859274 59.9597774 279.617841 79.0841204 285.867346 98.4528449 300.565754 95.3891353 304.490694 106.934671 320.354365 118.653063 328.296631 126.529896 328.782406 129.539961 334.811375 142.116667 320.589802 168.387679 318.354642 206.743655 338.265442 211.366042 356.984156"></polygon>
                <text id="Côté-Néerlandais" font-family="Lato-Bold, Lato" font-size="14" font-weight="bold" fill="#135589">
                    <tspan x="278.578704" y="332.760093">Côté Néerlandais</tspan>
                </text>
                <text id="Côté-Français" font-family="Lato-Bold, Lato" font-size="14" font-weight="bold" fill="#135589">
                    <tspan x="318.50935" y="157.130564">Côté Français</tspan>
                </text>
                <polyline id="Frontière" stroke="#2A93D5" points="50.1457737 269.118552 72.5543657 262.317708 144.399548 269.970893 193.237106 291.350937 215.085409 298.607755 264.820026 289.452542 271.176925 280.505944 279.843528 280.505944 282.627093 267.023463 299.432792 254.810552 311.464111 253.037326 325.226962 235.56136 361.496754 231.079121 406.600043 263.554496 416.268014 256.920543 446.994518 271.419276 464.682374 262.043528 482.194396 265.867141"></polyline>
                <ellipse id="Point-Marigot" fill="#135589" cx="239.14242" cy="218.752851" rx="11.7611026" ry="11.760906"></ellipse>
                <ellipse id="Point-Philipsburg" fill="#135589" cx="372.434916" cy="381.837414" rx="11.7611026" ry="11.760906"></ellipse>
                <text id="Philipsburg" font-family="Lato-Bold, Lato" font-size="11" font-weight="bold" fill="#135589">
                    <tspan x="400.199885" y="409.598012">Philipsburg</tspan>
                </text>
                <text id="Marigot" font-family="Lato-Bold, Lato" font-size="11" font-weight="bold" fill="#135589">
                    <tspan x="176.185377" y="225.343818">Marigot</tspan>
                </text>
            </g>
        </g>
    </g>
</svg>